# xmcd
#
# Track frame offsets: 
#        150
#        17227
#        32487
#        44227
#        59482
#        73530
#        88382
#        103040
#        118905
#        134990
#
# Disc length: 1985 seconds
#
# Revision: 2
# Processed by: cddbd v1.5.1PL2 Copyright (c) Steve Scherf et al.
# Submitted via: ExactAudioCopy v0.95b3
#
DISCID=9f07bf0a
DTITLE=David Gates - David Gates - Take Me Now
DYEAR=1900
DGENRE=
TTITLE0=It's You
TTITLE1=Take Me Now
TTITLE2=She's A Heartbreaker
TTITLE3=This Could Be Forever
TTITLE4=Come Home For Christmas
TTITLE5=Still In Love
TTITLE6=Vanity
TTITLE7=Nineteen On The Richter Scale
TTITLE8=Lady Valentine
TTITLE9=It's What You Say
EXTD=
EXTT0=
EXTT1=
EXTT2=
EXTT3=
EXTT4=
EXTT5=
EXTT6=
EXTT7=
EXTT8=
EXTT9=
PLAYORDER=
